<svg width="100" height="100" viewBox="0 0 100 100" fill="none"
    xmlns="http://www.w3.org/2000/svg">
    <path fill-rule="evenodd" clip-rule="evenodd" d="M74.3302 46.4299V46.5099C74.3302 46.5399 74.3602 46.5899 74.3602 46.5899V78.9899C74.3609 79.1661 74.315 79.3394 74.2272 79.4922C74.1394 79.645 74.0128 79.7718 73.8602 79.8599L62.9502 86.1699C62.7449 86.2894 62.5039 86.3319 62.2702 86.2899L62.1002 86.2399C62.0392 86.2236 61.9816 86.1965 61.9302 86.1599L57.1602 83.4099V85.8199L57.6402 85.5399C57.8686 85.4087 58.1395 85.3729 58.3942 85.4403C58.6488 85.5077 58.8666 85.6729 59.0002 85.8999C59.1258 86.1208 59.1626 86.3812 59.1031 86.6282C59.0437 86.8752 58.8925 87.0904 58.6802 87.2299L56.6802 88.3799C56.5278 88.4663 56.3553 88.5111 56.1802 88.5099C56.0938 88.5203 56.0065 88.5203 55.9202 88.5099C55.843 88.4904 55.7689 88.4601 55.7002 88.4199L44.0002 81.6599V88.1699L48.0002 85.8399C48.2287 85.7204 48.4946 85.6938 48.7423 85.7656C48.99 85.8375 49.2004 86.0023 49.3294 86.2256C49.4585 86.4489 49.4963 86.7134 49.435 86.9639C49.3736 87.2144 49.2178 87.4316 49.0002 87.5699L43.4702 90.7299C43.396 90.7758 43.315 90.8096 43.2302 90.8299C43.1441 90.8445 43.0562 90.8445 42.9702 90.8299H42.8802H42.7102C42.6871 90.8244 42.6632 90.8244 42.6402 90.8299L42.4702 90.7599L26.1902 81.3699C26.0376 81.2818 25.9109 81.155 25.8231 81.0022C25.7353 80.8494 25.6895 80.6761 25.6902 80.4999V62.1299C25.6803 62.0435 25.6803 61.9563 25.6902 61.8699C25.7258 61.7603 25.7763 61.656 25.8402 61.5599L25.8902 61.4999C25.9648 61.4042 26.0563 61.3229 26.1602 61.2599L28.7402 59.7699V37.1399L26.1602 35.6499C26.009 35.5627 25.8833 35.4374 25.7956 35.2865C25.7079 35.1356 25.6612 34.9644 25.6602 34.7899V16.4099C25.6612 16.2354 25.7079 16.0642 25.7956 15.9133C25.8833 15.7625 26.009 15.6372 26.1602 15.5499L37.0702 9.23993C37.2222 9.15216 37.3946 9.10596 37.5702 9.10596C37.7457 9.10596 37.9181 9.15216 38.0702 9.23993L54.3502 18.6299L54.4202 18.6799L54.4902 18.7399C54.5814 18.8125 54.6592 18.9005 54.7202 18.9999C54.7775 19.1019 54.8148 19.2139 54.8302 19.3299C54.835 19.3597 54.835 19.3901 54.8302 19.4199C54.835 19.4464 54.835 19.4735 54.8302 19.4999V28.8799L67.5302 36.2099L67.5902 36.2599L67.6702 36.3199C67.7617 36.3893 67.8369 36.4781 67.8902 36.5799C67.9475 36.6819 67.9848 36.7939 68.0002 36.9099V36.9999L68.0702 37.1399V42.4399L73.8602 45.7799L73.9202 45.8299C73.9433 45.8254 73.967 45.8254 73.9902 45.8299C74.0849 45.8987 74.1634 45.9875 74.2202 46.0899C74.2769 46.1957 74.3142 46.3109 74.3302 46.4299ZM62.4202 51.7499L71.3302 46.5999L67.0402 44.1199L58.1202 49.2699L62.4202 51.7499ZM57.1302 47.5399L66.0402 42.3899V38.8399L57.1302 43.9999V47.5399ZM56.1302 42.2499L65.0402 37.0899L53.8402 30.6199L44.9302 35.7799L56.1302 42.2499ZM43.9302 34.0499L52.8402 28.8899V21.2299L43.9302 26.3899V34.0499ZM28.6602 62.1799H28.7402V62.0799L28.6602 62.1799ZM56.6402 80.8099L61.4302 83.5699L61.3902 53.4699L55.6002 50.1299L55.5102 50.0699L55.3902 49.9699C55.3382 49.9179 55.2913 49.8609 55.2502 49.7999C55.1934 49.6941 55.1561 49.5789 55.1402 49.4599C55.1353 49.4335 55.1353 49.4064 55.1402 49.3799C55.1359 49.3534 55.1359 49.3264 55.1402 49.2999V43.9999L42.3902 36.6199C42.3591 36.6021 42.3319 36.5783 42.3102 36.5499C42.263 36.5258 42.2193 36.4955 42.1802 36.4599C42.129 36.406 42.0852 36.3455 42.0502 36.2799C41.9928 36.1779 41.9555 36.0659 41.9402 35.9499V35.8599V35.7799V26.3899L29.0602 18.9599C28.8294 18.8273 28.6608 18.6085 28.5914 18.3516C28.522 18.0946 28.5575 17.8207 28.6902 17.5899C28.8228 17.3592 29.0416 17.1906 29.2985 17.1212C29.5555 17.0518 29.8294 17.0873 30.0602 17.2199L42.9402 24.6599L51.8602 19.4999L37.5702 11.2699L27.6602 16.9999V34.2099L30.2402 35.6999C30.3928 35.788 30.5194 35.9149 30.6072 36.0677C30.695 36.2205 30.7409 36.3937 30.7402 36.5699V63.9099C30.7391 64.0844 30.6924 64.2556 30.6047 64.4065C30.517 64.5574 30.3913 64.6827 30.2402 64.7699C30.0881 64.8577 29.9157 64.9039 29.7402 64.9039C29.5646 64.9039 29.3922 64.8577 29.2402 64.7699L27.6602 63.8599V79.9199L41.9402 88.1699V79.9299C41.9395 79.7537 41.9853 79.5805 42.0731 79.4277C42.1609 79.2749 42.2875 79.148 42.4402 79.0599C42.5922 78.9722 42.7646 78.926 42.9402 78.926C43.1157 78.926 43.2881 78.9722 43.4402 79.0599L55.1402 85.8199V81.6699C55.1412 81.4949 55.1882 81.3232 55.2764 81.172C55.3646 81.0209 55.4909 80.8955 55.6428 80.8084C55.7946 80.7214 55.9666 80.6757 56.1417 80.6759C56.3167 80.6762 56.4886 80.7224 56.6402 80.8099ZM63.4302 53.4799V83.5699L72.3402 78.4199V48.3299L63.4302 53.4799ZM50.3002 27.9999C50.7015 27.7409 51.0352 27.3898 51.2735 26.9758C51.5118 26.5618 51.6478 26.097 51.6702 25.6199C51.6702 24.7399 51.0602 24.3899 50.3002 24.8299C49.897 25.0877 49.5613 25.4383 49.3213 25.8523C49.0812 26.2664 48.9437 26.7318 48.9202 27.2099C48.9202 28.0999 49.5402 28.4599 50.3002 27.9999ZM47.4637 29.1958C47.2254 29.6097 46.8917 29.9608 46.4904 30.2198C45.7304 30.6598 45.1104 30.2998 45.1104 29.4298C45.1339 28.9518 45.2714 28.4863 45.5114 28.0723C45.7515 27.6583 46.0872 27.3077 46.4904 27.0498C47.2504 26.6098 47.8604 26.9598 47.8604 27.8398C47.838 28.3169 47.702 28.7818 47.4637 29.1958ZM70.3901 50.7159C70.5657 50.7159 70.7381 50.7621 70.8901 50.8499C71.0427 50.938 71.1694 51.0649 71.2572 51.2177C71.345 51.3704 71.3908 51.5437 71.3901 51.7199V77.2999C71.3891 77.4744 71.3424 77.6456 71.2547 77.7965C71.167 77.9474 71.0413 78.0727 70.8901 78.1599L65.8901 81.0499C65.7387 81.1398 65.5662 81.1881 65.3901 81.1899C65.2141 81.1881 65.0416 81.1398 64.8901 81.0499C64.739 80.9627 64.6133 80.8374 64.5256 80.6865C64.4379 80.5356 64.3912 80.3644 64.3901 80.1899V54.6099C64.3894 54.4337 64.4353 54.2604 64.5231 54.1077C64.6109 53.9549 64.7375 53.828 64.8901 53.7399L69.8901 50.8499C70.0422 50.7621 70.2146 50.7159 70.3901 50.7159ZM66.3901 78.4599L69.3901 76.7199V53.4499L66.3901 55.1899V78.4599Z" fill="#28CDCD" />
</svg>
