<svg width="100" height="100" viewBox="0 0 100 100" fill="none"
    xmlns="http://www.w3.org/2000/svg">
    <g clip-path="url(#clip0_815_4039)">
        <path fill-rule="evenodd" clip-rule="evenodd" d="M10.5686 35.0172C10.6306 34.9544 10.7015 34.8994 10.7799 34.8541L42.1199 16.7541C42.5126 16.5273 42.9951 16.5971 43.3081 16.8941L46.7585 18.885L47.2581 18.5951C47.7358 18.3179 48.3478 18.4804 48.6249 18.9581C48.8115 19.2796 48.7989 19.6619 48.6251 19.962L84.3022 40.5479L84.7383 40.295C85.2161 40.018 85.828 40.1806 86.105 40.6584C86.28 40.96 86.2796 41.3151 86.1353 41.6057L89.1998 43.3739C89.2812 43.4208 89.3544 43.4783 89.4181 43.544C89.6043 43.7256 89.72 43.9793 89.72 44.26V57.801L99.4978 63.4127C99.808 63.5908 99.9995 63.921 100 64.2787C100 64.6364 99.8099 64.9671 99.5001 65.146L68.1601 83.246C67.8517 83.4241 67.4719 83.4248 67.1629 83.2478L56.8777 77.3562C56.8654 77.3495 56.8532 77.3424 56.8411 77.3351L53.6208 75.4734C53.4397 75.6513 53.1912 75.7608 52.9173 75.7601C52.365 75.7586 51.9185 75.3097 51.92 74.7574L51.9207 74.4905L16.1323 53.8003C15.954 53.9623 15.7171 54.0607 15.4573 54.06C14.9051 54.0585 14.4585 53.6096 14.46 53.0573L14.4606 52.8339L10.7795 50.7058C10.7259 50.6748 10.6759 50.6393 10.6298 50.5998L0.502226 44.7873C0.191794 44.6091 0.000257513 44.2786 0 43.9207C-0.000256994 43.5628 0.190804 43.232 0.50098 43.0534L7.62098 38.9534C8.09958 38.6778 8.71099 38.8424 8.98659 39.321C9.26219 39.7996 9.09762 40.411 8.61902 40.6866L3.00643 43.9185L10.28 48.0931V35.9404C10.2116 35.6062 10.3194 35.2552 10.5686 35.0172ZM88.2372 59.256C88.0746 59.1662 87.9397 59.0324 87.8485 58.8707C87.7613 58.7155 87.7167 58.539 87.72 58.3607V45.9603L58.36 62.9059V74.7456L66.7389 69.8946C67.2169 69.6179 67.8287 69.7811 68.1054 70.259C68.3821 70.737 68.219 71.3488 67.741 71.6255L59.3638 76.4754L67.6579 81.2264L96.9958 64.2828L88.2372 59.256ZM12.28 36.3057V49.2631L14.4668 50.5273L14.4985 38.7577L13.4015 38.127C12.9228 37.8517 12.7578 37.2404 13.0331 36.7616C13.3084 36.2828 13.9197 36.1179 14.3985 36.3932L15.4977 37.0252L44.7633 20.0428L42.6003 18.7947L12.28 36.3057ZM16.4637 51.6818L51.9269 72.1839L51.9584 60.4556L17.8189 40.6854C17.341 40.4086 17.1779 39.7968 17.4547 39.3189C17.7314 38.8409 18.3432 38.6779 18.8212 38.9546L52.9597 58.7242L82.3064 41.7054L46.7614 21.1957L16.4985 38.7568L16.4637 51.6818ZM53.9238 73.3384L56.36 74.7468V62.9335L55.2262 62.2896C54.746 62.0168 54.5777 61.4064 54.8505 60.9262C55.1232 60.4459 55.7336 60.2777 56.2138 60.5505L57.336 61.1877L86.6993 44.2401L84.3047 42.8584L53.9584 60.457L53.9238 73.3384ZM86.5751 65.0522C86.3242 64.9083 86.2596 64.7973 86.244 64.76C86.2596 64.7227 86.3242 64.6117 86.5751 64.4678C86.9156 64.2726 87.4526 64.12 88.1 64.12C88.7474 64.12 89.2844 64.2726 89.6249 64.4678C89.8758 64.6117 89.9404 64.7227 89.956 64.76C89.9404 64.7973 89.8758 64.9083 89.6249 65.0522C89.2844 65.2474 88.7474 65.4 88.1 65.4C87.4526 65.4 86.9156 65.2474 86.5751 65.0522ZM88.1 62.12C87.1679 62.12 86.2748 62.3345 85.5802 62.7328C84.9132 63.1153 84.24 63.7952 84.24 64.76C84.24 65.7248 84.9132 66.4047 85.5802 66.7871C86.2748 67.1855 87.1679 67.4 88.1 67.4C89.0321 67.4 89.9251 67.1855 90.6198 66.7871C91.2868 66.4047 91.96 65.7248 91.96 64.76C91.96 63.7952 91.2868 63.1153 90.6198 62.7328C89.9251 62.3345 89.0321 62.12 88.1 62.12ZM66.3751 76.5121C66.1242 76.3682 66.0596 76.2573 66.044 76.22C66.0596 76.1826 66.1242 76.0717 66.3751 75.9278C66.7156 75.7326 67.2526 75.58 67.9 75.58C68.5474 75.58 69.0844 75.7326 69.4249 75.9278C69.6758 76.0717 69.7404 76.1826 69.756 76.22C69.7404 76.2573 69.6758 76.3682 69.4249 76.5121C69.0844 76.7074 68.5474 76.86 67.9 76.86C67.2526 76.86 66.7156 76.7074 66.3751 76.5121ZM67.9 73.58C66.9679 73.58 66.0749 73.7945 65.3802 74.1928C64.7132 74.5753 64.04 75.2551 64.04 76.22C64.04 77.1848 64.7132 77.8646 65.3802 78.2471C66.0749 78.6454 66.9679 78.86 67.9 78.86C68.8321 78.86 69.7251 78.6454 70.4198 78.2471C71.0868 77.8646 71.76 77.1848 71.76 76.22C71.76 75.2551 71.0868 74.5753 70.4198 74.1928C69.7251 73.7945 68.8321 73.58 67.9 73.58ZM47.8599 25.9739C47.5505 25.7953 47.1694 25.7953 46.86 25.974L26.7 37.614C26.3906 37.7926 26.2 38.1228 26.2 38.48C26.2 38.8373 26.3907 39.1675 26.7001 39.3461L52.1001 54.0061C52.4095 54.1846 52.7907 54.1846 53.1 54.006L73.26 42.366C73.5694 42.1873 73.76 41.8572 73.76 41.4999C73.76 41.1426 73.5693 40.8125 73.2599 40.6339L47.8599 25.9739ZM29.2002 38.4798L47.3601 27.9946L70.7598 41.5001L52.5999 51.9853L29.2002 38.4798ZM46.8596 30.4942C47.1691 30.3153 47.5505 30.3153 47.8601 30.494L65.4201 40.634C65.7294 40.8126 65.9199 41.1426 65.92 41.4998C65.9201 41.857 65.7296 42.1871 65.4204 42.3658L61.4344 44.6693C61.3619 44.7258 61.2824 44.7715 61.1985 44.8057L53.1004 49.4858C52.7909 49.6646 52.4095 49.6647 52.0999 49.486L34.5399 39.346C34.2306 39.1674 34.0401 38.8373 34.04 38.4802C34.0399 38.123 34.2304 37.7929 34.5396 37.6142L38.5262 35.3103C38.5984 35.2542 38.6774 35.2088 38.7608 35.1747L46.8596 30.4942ZM58.8117 43.8751L56.7089 45.0904L49.9274 41.1745L52.0332 39.9609L58.8117 43.8751ZM60.8106 42.7199L54.035 38.8073L56.1482 37.5895L62.9209 41.5003L60.8106 42.7199ZM52.0342 37.652L54.1474 36.4341L47.3602 32.5149L45.25 33.7344L52.0342 37.652ZM43.2511 34.8896L41.1482 36.1049L47.9267 40.0191L50.0325 38.8056L43.2511 34.8896ZM37.0391 38.4796L39.1493 37.2601L45.925 41.1727L43.8118 42.3905L37.0391 38.4796ZM45.8126 43.5458L47.9257 42.3281L54.7099 46.2456L52.5998 47.4651L45.8126 43.5458ZM86.6389 60.7267C87.1176 60.4511 87.2822 59.8397 87.0066 59.3611C86.731 58.8824 86.1196 58.7178 85.641 58.9934L85.3481 59.162C85.3817 58.9656 85.4046 58.767 85.4166 58.5671C85.4636 58.1417 85.395 57.7112 85.2177 57.3211C85.0349 56.919 84.7439 56.5758 84.3772 56.3297C84.3325 56.2996 84.2853 56.2733 84.2363 56.2508C84.2072 56.2375 84.1778 56.2247 84.1482 56.2126L80.3281 53.9587C80.2939 53.9385 80.2585 53.9203 80.222 53.9044C79.8334 53.7337 79.4074 53.6656 78.9849 53.7067C78.5668 53.7474 78.1659 53.8935 77.8199 54.1315C77.1017 54.6075 76.5063 55.2467 76.0825 55.9969C75.6619 56.7413 75.4221 57.574 75.3822 58.4277C75.3426 58.848 75.4136 59.2715 75.5884 59.6561C75.7684 60.052 76.0517 60.3921 76.4085 60.6406C76.4301 60.6556 76.4523 60.6698 76.475 60.6831L80.475 63.0231C80.6013 63.097 80.7371 63.14 80.8736 63.1545C81.0331 63.2093 81.1995 63.2462 81.3699 63.2638C81.9397 63.3228 82.5097 63.1611 82.9631 62.8135L82.9966 62.7913L83.0305 62.7684C83.0495 62.7555 83.0684 62.7424 83.0873 62.7292C83.1734 62.7072 83.2581 62.6732 83.3389 62.6267L86.6389 60.7267ZM83.3368 58.0555C83.3612 58.0833 83.3815 58.1147 83.397 58.1487C83.4261 58.2129 83.4369 58.2839 83.428 58.3539C83.4249 58.3779 83.4227 58.402 83.4214 58.4261C83.3918 58.9746 83.2328 59.5083 82.9574 59.9835C82.682 60.4588 82.298 60.8621 81.8368 61.1604L81.9411 61.3216C81.927 61.3506 81.9144 61.3801 81.9031 61.4102L81.7513 61.2224C81.702 61.2622 81.6388 61.281 81.5757 61.2744C81.515 61.2682 81.4591 61.239 81.4192 61.1931C81.3975 61.164 81.3816 61.131 81.3724 61.0958C81.3626 61.0581 81.3608 61.0188 81.367 60.9804C81.3731 60.9432 81.377 60.9056 81.3788 60.8679C81.405 60.3222 81.5592 59.7903 81.8291 59.3152C82.0991 58.8402 82.477 58.4354 82.9324 58.1336L82.948 58.1231L82.9637 58.112C83.0267 58.0667 83.1006 58.0389 83.1779 58.0314C83.2208 58.0272 83.2638 58.0294 83.3057 58.0376L83.3118 58.0412L83.3213 58.0468L83.3368 58.0555ZM81.3067 56.8582L79.3774 55.7199C79.3136 55.6986 79.2458 55.6908 79.1785 55.6973C79.0967 55.7053 79.0183 55.7341 78.9509 55.781L78.9307 55.7946C78.473 56.0967 78.0935 56.5032 77.8238 56.9807C77.554 57.4582 77.4016 57.993 77.3791 58.5409C77.3782 58.5637 77.3765 58.5863 77.374 58.6089C77.3658 58.6839 77.3779 58.7598 77.4092 58.8285C77.4365 58.8887 77.4777 58.9415 77.5292 58.9827L79.4536 60.1085C79.5607 59.484 79.7756 58.8811 80.0902 58.3272C80.4075 57.7687 80.8197 57.2719 81.3067 56.8582ZM79.2456 63.8393C79.5221 64.3173 79.3588 64.929 78.8807 65.2056L71.6208 69.4056C71.5321 69.4569 71.4389 69.493 71.3441 69.5148C71.0577 69.6704 70.7421 69.7675 70.4156 69.7993C69.9871 69.8409 69.5551 69.7685 69.1637 69.5892C69.1021 69.561 69.0436 69.5267 68.989 69.4867C68.9764 69.4775 68.9639 69.4681 68.9515 69.4587C68.9326 69.4442 68.9139 69.4296 68.8954 69.4146L65.1151 67.2031C65.1075 67.1987 65.0999 67.1941 65.0924 67.1895C65.0775 67.1802 65.0629 67.1706 65.0485 67.1606C64.6917 66.912 64.4084 66.572 64.2285 66.1761C64.0525 65.7889 63.9817 65.3624 64.023 64.9394C64.0747 64.091 64.3188 63.2653 64.737 62.5251C65.1573 61.7811 65.7423 61.1432 66.4471 60.6603C66.7944 60.4135 67.2002 60.2619 67.6244 60.2207C68.0529 60.179 68.4848 60.2515 68.8763 60.4307C68.9066 60.4446 68.9362 60.46 68.9649 60.4768L72.9649 62.8168C73.1502 62.9252 73.2877 63.084 73.3702 63.2656C73.4133 63.3107 73.4546 63.3578 73.494 63.4067C73.6938 63.6472 73.8395 63.9279 73.9213 64.2299C73.9979 64.5129 74.0167 64.8082 73.9766 65.0982C73.9652 65.3262 73.9396 65.5526 73.9002 65.7763L77.8792 63.4744C78.3573 63.1979 78.969 63.3612 79.2456 63.8393ZM69.944 63.3667C69.4408 63.7866 69.0156 64.2945 68.6902 64.8672C68.3822 65.4094 68.1698 65.9986 68.0605 66.6091L66.1692 65.5027C66.1177 65.4615 66.0766 65.4087 66.0492 65.3485C66.018 65.2798 66.0058 65.2039 66.014 65.1289C66.016 65.1115 66.0174 65.094 66.0184 65.0764C66.0496 64.5256 66.2069 63.9893 66.4783 63.5089C66.7497 63.0285 67.1279 62.617 67.5836 62.306L67.6037 62.292C67.6667 62.2466 67.7406 62.2188 67.8179 62.2113C67.8833 62.2049 67.9492 62.2133 68.0107 62.2357L69.944 63.3667ZM70.0868 67.7945C70.059 67.7613 70.0357 67.7244 70.0176 67.6847C69.9836 67.6097 69.9693 67.5273 69.9764 67.4452C69.9774 67.4328 69.9782 67.4203 69.9788 67.4078C70.005 66.8621 70.1592 66.3302 70.4291 65.8552C70.699 65.3802 71.077 64.9754 71.5324 64.6736C71.5559 64.658 71.5787 64.6415 71.6008 64.624C71.6506 64.5845 71.714 64.5665 71.7771 64.5737C71.8403 64.581 71.898 64.613 71.9375 64.6627L71.9486 64.6763L71.9548 64.6838C71.9717 64.7039 71.984 64.7274 71.9908 64.7527C71.9977 64.778 71.9989 64.8045 71.9945 64.8303C71.9871 64.8734 71.9825 64.917 71.9808 64.9607C71.9593 65.5067 71.8102 66.0402 71.5455 66.5183C71.2807 66.9965 70.9077 67.4059 70.4563 67.714L70.4899 67.7633L70.4722 67.778L70.4363 67.728C70.3733 67.7733 70.2993 67.8012 70.2221 67.8087C70.1822 67.8125 70.1422 67.8109 70.1031 67.8041L70.0868 67.7945Z" fill="#28CDCD" />
    </g>
    <defs>
        <clipPath id="clip0_815_4039">
            <rect width="100" height="100" fill="white" />
        </clipPath>
    </defs>
</svg>
