<svg width="100" height="100" viewBox="0 0 100 100" fill="none"
    xmlns="http://www.w3.org/2000/svg">
    <g clip-path="url(#clip0_815_4008)">
        <path fill-rule="evenodd" clip-rule="evenodd" d="M90.0802 37.3301V37.4101C90.0802 37.4401 90.0901 37.4901 90.0901 37.4901V69.8601C90.0909 70.0363 90.045 70.2095 89.9572 70.3623C89.8694 70.5151 89.7428 70.642 89.5901 70.7301L47.1802 95.2301C46.9749 95.3495 46.7339 95.3921 46.5002 95.3501H46.3302L46.1602 95.2601L41.3902 92.5101V94.9601L41.9402 94.6401C42.0537 94.5735 42.1792 94.5301 42.3096 94.5122C42.44 94.4942 42.5726 94.5022 42.6999 94.5357C42.8272 94.5691 42.9466 94.6274 43.0513 94.7071C43.156 94.7867 43.244 94.8863 43.3102 95.0001C43.4156 95.2228 43.4352 95.4766 43.3651 95.7128C43.2949 95.949 43.1401 96.151 42.9302 96.2801L40.9302 97.4701L40.7802 97.5301C40.6686 97.5742 40.5501 97.5979 40.4302 97.6001C40.3438 97.6099 40.2565 97.6099 40.1702 97.6001L39.9602 97.5201L28.2602 90.7601V97.2501L32.3702 94.8701C32.484 94.7977 32.6112 94.7491 32.7443 94.7272C32.8774 94.7054 33.0135 94.7106 33.1445 94.7427C33.2755 94.7748 33.3987 94.833 33.5066 94.914C33.6145 94.9949 33.7049 95.0968 33.7724 95.2135C33.8399 95.3303 33.8831 95.4595 33.8993 95.5934C33.9156 95.7273 33.9046 95.8631 33.867 95.9926C33.8295 96.1221 33.7661 96.2427 33.6807 96.3471C33.5953 96.4515 33.4897 96.5376 33.3702 96.6001L27.7702 99.8401C27.6928 99.8794 27.6126 99.9128 27.5302 99.9401C27.4438 99.9504 27.3565 99.9504 27.2702 99.9401H27.1902H27.0202H26.9402L26.7802 99.8701L10.5002 90.4701C10.3476 90.382 10.2209 90.2551 10.1331 90.1023C10.0453 89.9495 9.99946 89.7763 10.0002 89.6001V71.2501C9.98493 71.1674 9.98493 71.0827 10.0002 71.0001C10.0092 70.881 10.0433 70.7651 10.1002 70.6601C10.1109 70.633 10.1281 70.609 10.1502 70.5901C10.2228 70.4988 10.3107 70.421 10.4102 70.3601L13.0002 68.8701V46.2401L10.4102 44.7501C10.259 44.6628 10.1333 44.5375 10.0456 44.3867C9.95792 44.2358 9.91121 44.0646 9.91016 43.8901V25.5101C9.91121 25.3356 9.95792 25.1644 10.0456 25.0135C10.1333 24.8626 10.259 24.7373 10.4102 24.6501L52.8202 0.130068C52.9722 0.0423 53.1446 -0.00390625 53.3202 -0.00390625C53.4957 -0.00390625 53.6681 0.0423 53.8202 0.130068L70.1202 9.53007L70.1802 9.58007L70.2502 9.64007C70.4327 9.78932 70.5567 9.99829 70.6002 10.2301V10.3201V10.4001V19.7901L83.3302 27.1801L83.3902 27.2301H83.4602C83.6411 27.3834 83.7616 27.5961 83.8002 27.8301V27.9201V28.0001V33.2801L89.6102 36.7301H89.6702H89.7402C89.9211 36.8834 90.0415 37.0961 90.0802 37.3301ZM46.6802 60.8501L87.0802 37.4901L82.8002 35.0001L42.3902 58.3801L46.6802 60.8501ZM81.8002 29.7201L41.3902 53.0801V56.6401L81.8002 33.2801V29.7201ZM40.3902 51.3501L80.8002 28.0001L69.6002 21.5201L29.1902 44.8801L40.3902 51.3501ZM68.6002 12.1301L28.1902 35.5001V43.1501L68.6002 19.7901V12.1301ZM13.0002 71.2801V71.1801L12.9102 71.2801H13.0002ZM40.8902 89.9101L45.6802 92.6701L45.6102 62.5801L39.8302 59.2401L39.7502 59.1801L39.6302 59.0901C39.4812 58.9408 39.3832 58.7483 39.3502 58.5401V58.4601V58.3801V53.0801L26.6602 45.7501L26.5802 45.6901L26.4602 45.5901C26.3107 45.4465 26.2153 45.2558 26.1902 45.0501V44.9601V44.8801V35.4901L13.3902 28.1001C13.2707 28.0376 13.165 27.9515 13.0796 27.8471C12.9942 27.7427 12.9309 27.6221 12.8933 27.4926C12.8557 27.3631 12.8447 27.2273 12.861 27.0934C12.8772 26.9595 12.9204 26.8303 12.9879 26.7135C13.0554 26.5968 13.1458 26.4949 13.2537 26.414C13.3616 26.333 13.4848 26.2748 13.6158 26.2427C13.7468 26.2106 13.8829 26.2054 14.016 26.2272C14.1491 26.2491 14.2763 26.2977 14.3902 26.3701L27.1902 33.7601L67.6002 10.4001L53.3202 2.16007L11.9102 26.0901V43.3101L14.5002 44.8001C14.6528 44.8882 14.7794 45.015 14.8672 45.1678C14.955 45.3206 15.0009 45.4939 15.0002 45.6701V73.0001C15.01 73.1846 14.9685 73.3683 14.8802 73.5307C14.7919 73.6931 14.6604 73.8279 14.5002 73.9201C14.3481 74.0078 14.1757 74.054 14.0002 74.054C13.8246 74.054 13.6522 74.0078 13.5002 73.9201L11.9102 73.0001V89.0001L26.1902 97.2701V89.0301C26.1912 88.8556 26.2379 88.6844 26.3256 88.5335C26.4133 88.3826 26.539 88.2573 26.6902 88.1701C26.8422 88.0823 27.0146 88.0361 27.1902 88.0361C27.3657 88.0361 27.5381 88.0823 27.6902 88.1701L39.3902 94.9201V90.7801C39.3895 90.6039 39.4353 90.4306 39.5231 90.2778C39.6109 90.125 39.7376 89.9982 39.8902 89.9101C40.0422 89.8223 40.2146 89.7761 40.3902 89.7761C40.5657 89.7761 40.7381 89.8223 40.8902 89.9101ZM47.6802 62.5901V92.6701L88.0901 69.3301V39.2301L47.6802 62.5901ZM65.0003 16.8802C64.6533 17.1168 64.3673 17.4323 64.1657 17.8008C63.9641 18.1693 63.8526 18.5803 63.8403 19.0002C63.8403 19.7702 64.3703 20.0802 65.0403 19.6902C65.39 19.4624 65.6809 19.1553 65.8895 18.7939C66.098 18.4324 66.2182 18.0269 66.2403 17.6102C66.2403 16.8102 65.7003 16.5002 65.0003 16.8802ZM60.8411 19.7165C61.0496 19.355 61.3406 19.0479 61.6902 18.8202C62.3602 18.4302 62.8902 18.7402 62.8902 19.5102C62.8689 19.9284 62.749 20.3357 62.5405 20.6989C62.332 21.0621 62.0407 21.3709 61.6902 21.6002C61.0302 21.9802 60.4902 21.6702 60.4902 20.9002C60.5124 20.4835 60.6326 20.0779 60.8411 19.7165ZM58.3401 20.7501C57.9903 20.98 57.6994 21.289 57.4909 21.652C57.2825 22.0151 57.1623 22.4221 57.1401 22.8401C57.1401 23.6001 57.6801 23.9101 58.3401 23.5301C58.6917 23.3035 58.9845 22.9969 59.1948 22.6354C59.4051 22.2739 59.5269 21.8677 59.5501 21.4501C59.5501 20.6801 59.0001 20.3701 58.3401 20.7501ZM54.1521 23.5826C54.3605 23.2196 54.651 22.9106 55.0003 22.6801C55.6603 22.3001 56.2003 22.6101 56.2103 23.3801C56.1879 23.7978 56.0664 24.2043 55.8561 24.5659C55.6457 24.9276 55.3524 25.234 55.0003 25.4601C54.3403 25.8501 53.8003 25.5401 53.8003 24.7701C53.8232 24.3522 53.9437 23.9455 54.1521 23.5826ZM51.6502 24.6201C51.2981 24.8461 51.0048 25.1526 50.7944 25.5142C50.584 25.8759 50.4626 26.2823 50.4402 26.7001C50.4402 27.4701 50.9802 27.7801 51.6502 27.4001C51.9995 27.1696 52.29 26.8605 52.4984 26.4976C52.7067 26.1347 52.8272 25.728 52.8502 25.3101C52.8502 24.5401 52.3102 24.2301 51.6502 24.6201ZM47.4456 27.4448C47.6559 27.0833 47.9488 26.7767 48.3003 26.5501C49.0003 26.1701 49.5003 26.4801 49.5003 27.2401C49.4782 27.6581 49.358 28.0651 49.1496 28.4282C48.9411 28.7912 48.6502 29.1002 48.3003 29.3301C47.6303 29.7101 47.0903 29.4001 47.0903 28.6301C47.1136 28.2125 47.2353 27.8063 47.4456 27.4448ZM45.0003 28.4801C44.651 28.7106 44.3605 29.0197 44.1521 29.3826C43.9437 29.7456 43.8232 30.1522 43.8003 30.5701C43.8003 31.3401 44.3403 31.6501 45.0003 31.2601C45.35 31.0324 45.6409 30.7253 45.8494 30.3638C46.0579 30.0024 46.1782 29.5968 46.2003 29.1801C46.1503 28.4101 45.6103 28.1001 45.0003 28.4801ZM40.751 31.3164C40.9595 30.955 41.2505 30.6479 41.6001 30.4202C42.2701 30.0002 42.8101 30.3402 42.8101 31.1102C42.7869 31.5291 42.6652 31.9367 42.4549 32.2998C42.2447 32.6629 41.9519 32.9714 41.6001 33.2002C40.9401 33.5802 40.4001 33.2702 40.4001 32.5002C40.4223 32.0835 40.5425 31.6779 40.751 31.3164ZM38.2503 32.3501C37.9017 32.579 37.6116 32.8864 37.4033 33.2476C37.1949 33.6088 37.074 34.0138 37.0503 34.4301C37.0503 35.2001 37.5903 35.5101 38.2503 35.1301C38.6085 34.8987 38.9055 34.5842 39.1162 34.2133C39.3268 33.8425 39.4449 33.4263 39.4603 33.0001C39.4603 32.2801 38.9203 32.0001 38.2503 32.3501ZM34.0554 35.1805C34.2656 34.8174 34.5585 34.509 34.9102 34.2802C35.5702 33.9002 36.1102 34.2102 36.1102 35.0002C36.0835 35.413 35.9611 35.814 35.7529 36.1715C35.5446 36.529 35.2561 36.8333 34.9102 37.0602C34.2402 37.4502 33.7002 37.1302 33.7002 36.3702C33.7235 35.9512 33.8452 35.5437 34.0554 35.1805ZM31.5603 36.2201C31.2083 36.4461 30.915 36.7526 30.7046 37.1142C30.4942 37.4758 30.3728 37.8823 30.3503 38.3001C30.3503 39.0701 30.8903 39.3801 31.5603 39.0001C31.9097 38.7696 32.2001 38.4605 32.4085 38.0976C32.6169 37.7346 32.7374 37.3279 32.7603 36.9101C32.7603 36.1401 32.2203 35.8301 31.5603 36.2201ZM76.3203 53.6901C76.1451 53.6913 75.9727 53.6465 75.8203 53.5601C75.6677 53.472 75.5411 53.3451 75.4533 53.1924C75.3655 53.0396 75.3196 52.8663 75.3203 52.6901V48.3801C75.3196 48.2039 75.3655 48.0306 75.4533 47.8778C75.5411 47.7251 75.6677 47.5982 75.8203 47.5101L84.8203 42.2901C84.9723 42.2023 85.1448 42.1561 85.3203 42.1561C85.4959 42.1561 85.6683 42.2023 85.8203 42.2901C85.9729 42.3782 86.0995 42.5051 86.1873 42.6578C86.2751 42.8106 86.321 42.9839 86.3203 43.1601V47.4801C86.3193 47.6546 86.2726 47.8258 86.1848 47.9767C86.0971 48.1276 85.9715 48.2528 85.8203 48.3401L76.8203 53.5601C76.6679 53.6465 76.4955 53.6913 76.3203 53.6901ZM84.3203 44.8901L77.3203 48.9601V50.9501L84.3203 46.8901V44.8901ZM71.9303 54.2262C72.1058 54.2262 72.2783 54.2724 72.4303 54.3602C72.5829 54.4483 72.7095 54.5751 72.7973 54.7279C72.8851 54.8807 72.931 55.054 72.9303 55.2302V74.5602C72.931 74.7364 72.8851 74.9097 72.7973 75.0624C72.7095 75.2152 72.5829 75.3421 72.4303 75.4302L51.3003 87.6302C51.1487 87.7177 50.9768 87.7639 50.8018 87.7642C50.6268 87.7644 50.4547 87.7187 50.3029 87.6317C50.1511 87.5446 50.0247 87.4193 49.9365 87.2681C49.8483 87.1169 49.8014 86.9452 49.8003 86.7702V67.4302C49.7996 67.254 49.8455 67.0807 49.9333 66.9279C50.0211 66.7751 50.1477 66.6483 50.3003 66.5602L71.4303 54.3602C71.5823 54.2724 71.7548 54.2262 71.9303 54.2262ZM51.8003 85.0002L70.9303 74.0002V57.0002L51.8003 68.0002V85.0002ZM83.4701 54.3701L80.9301 52.9001L78.3901 57.3001L83.4701 54.3701ZM80.7402 66.7401L78.2002 65.2701L83.2802 62.3401L80.7402 66.7401ZM84.2402 60.9002L86.7802 56.5002L84.2402 55.0302V60.9002ZM74.8901 63.1501L77.4401 58.7401L77.4301 64.6101L74.8901 63.1501ZM75.5703 74.2501L80.0603 71.6601V69.1101L75.5703 71.6901V74.2501ZM86.1004 68.1701L81.6204 70.7601V68.2001L86.1004 65.6201V68.1701Z" fill="#28CDCD" />
    </g>
    <defs>
        <clipPath id="clip0_815_4008">
            <rect width="100" height="100" fill="white" />
        </clipPath>
    </defs>
</svg>
